<svg aria-hidden="true" style="position:absolute;width:0;height:0;overflow:hidden" xmlns="http://www.w3.org/2000/svg">
  <defs>
    <symbol id="icon-google-play" viewBox="0 0 30 32">
<path fill="#ea4335" style="fill: var(--color1, #ea4335)" d="M21.060 22.504l-15.135 8.48c-0.535 0.314-1.165 0.489-1.834 0.489-1.676 0-3.085-1.109-3.494-2.607-0.005-0.005-0.008-0.008-0.008-0.008l13.411-13.825 7.060 7.471z"></path>
<path fill="#fbbc04" style="fill: var(--color2, #fbbc04)" d="M29.449 15.767c0 1.338-0.771 2.508-1.912 3.104l-6.477 3.632-7.367-7.157 7.343-6.347 6.525 3.678c1.125 0.596 1.889 1.759 1.889 3.089z"></path>
<path fill="#4285f4" style="fill: var(--color3, #4285f4)" d="M14.456 15.385l-13.868 13.473c-0.079-0.291-0.118-0.589-0.118-0.902v-24.431c0-0.313 0.039-0.619 0.118-0.91l13.868 12.77z"></path>
<path fill="#34a853" style="fill: var(--color4, #34a853)" d="M0.589 2.615c0.417-1.506 1.826-2.615 3.502-2.615 0.685 0 1.322 0.191 1.873 0.505l15.072 8.495-6.942 6.737-13.506-13.121z"></path>
</symbol>
  </defs>
</svg>
