<svg aria-hidden="true" style="position:absolute;width:0;height:0;overflow:hidden" xmlns="http://www.w3.org/2000/svg">
  <defs>
    <symbol id="icon-google-play" viewBox="0 0 30 32">
<path fill="#ea4335" style="fill: var(--color1, #ea4335)" d="M21.060 22.504l-15.135 8.48c-0.535 0.314-1.165 0.489-1.834 0.489-1.676 0-3.085-1.109-3.494-2.607-0.005-0.005-0.008-0.008-0.008-0.008l13.411-13.825 7.060 7.471z"></path>
<path fill="#fbbc04" style="fill: var(--color2, #fbbc04)" d="M29.449 15.767c0 1.338-0.771 2.508-1.912 3.104l-6.477 3.632-7.367-7.157 7.343-6.347 6.525 3.678c1.125 0.596 1.889 1.759 1.889 3.089z"></path>
<path fill="#4285f4" style="fill: var(--color3, #4285f4)" d="M14.456 15.385l-13.868 13.473c-0.079-0.291-0.118-0.589-0.118-0.902v-24.431c0-0.313 0.039-0.619 0.118-0.91l13.868 12.77z"></path>
<path fill="#34a853" style="fill: var(--color4, #34a853)" d="M0.589 2.615c0.417-1.506 1.826-2.615 3.502-2.615 0.685 0 1.322 0.191 1.873 0.505l15.072 8.495-6.942 6.737-13.506-13.121z"></path>
</symbol>
<symbol id="icon-star" viewBox="0 0 32 32">
<path  d="M16 1.371l3.592 11.056h11.625l-9.405 6.833 3.592 11.056-9.405-6.833-9.405 6.833 3.592-11.056-9.405-6.833h11.625l3.592-11.056z"></path>
</symbol>
<symbol id="icon-triangle" viewBox="0 0 32 32">
<path  d="M16 2.5l15.155 26.25h-30.311l15.155-26.25z"></path>
</symbol>
<symbol id="icon-ellipse" viewBox="0 0 32 32">
<path  d="M32 16c0 8.837-7.163 16-16 16s-16-7.163-16-16c0-8.837 7.163-16 16-16s16 7.163 16 16z"></path>
</symbol>
<symbol id="icon-rectangle" viewBox="0 0 32 32">
<path d="M0 0h32v32h-32v-32z"></path>
</symbol>
<symbol id="icon-green-ball" viewBox="0 0 32 32">
<path d="M16 0c8.837 0 16 7.163 16 16s-7.163 16-16 16c-8.837 0-16-7.163-16-16s7.163-16 16-16z"></path>
</symbol>
<symbol id="icon-clarity_world-line" viewBox="0 0 32 32">
<path d="M23.783 16.026c-0.004-1.159-0.135-2.315-0.391-3.449h3.275c-0.168-0.473-0.371-0.934-0.609-1.38h-3.048c-0.573-1.814-1.461-3.525-2.629-5.062-0.746-0.297-1.524-0.517-2.32-0.655 1.6 1.629 2.808 3.568 3.539 5.683h-4.903v-5.829h-1.365v5.838h-4.903c0.732-2.119 1.943-4.061 3.548-5.691-0.793 0.136-1.567 0.353-2.311 0.647-1.173 1.53-2.067 3.235-2.647 5.044h-3.066c-0.242 0.453-0.449 0.923-0.619 1.406h3.302c-0.256 1.134-0.387 2.29-0.391 3.449 0.003 1.268 0.155 2.532 0.455 3.768h-3.22c0.187 0.484 0.412 0.954 0.673 1.406h2.938c0.557 1.652 1.382 3.211 2.447 4.622 0.762 0.31 1.559 0.538 2.374 0.681-1.485-1.535-2.627-3.339-3.357-5.303h4.785v5.467h1.365v-5.467h4.767c-0.733 1.965-1.878 3.769-3.366 5.303 0.819-0.148 1.619-0.382 2.384-0.698 1.063-1.405 1.889-2.959 2.447-4.605h2.911c0.26-0.444 0.485-0.905 0.673-1.38h-3.229c0.314-1.243 0.479-2.516 0.491-3.794zM15.331 19.794h-5.222c-0.64-2.373-0.668-4.858-0.082-7.243h5.304v7.243zM21.918 19.794h-5.222v-7.217h5.304c0.261 1.133 0.39 2.29 0.382 3.449 0.008 1.269-0.147 2.535-0.464 3.768z"></path>
<path d="M15.333 1.333c-2.769 0-5.476 0.821-7.778 2.359s-4.097 3.725-5.156 6.283c-1.060 2.558-1.337 5.373-0.797 8.089s1.874 5.21 3.832 7.168c1.958 1.958 4.452 3.291 7.168 3.831s5.531 0.263 8.089-0.797c2.558-1.060 4.745-2.854 6.283-5.156s2.359-5.009 2.359-7.778c0-3.713-1.475-7.274-4.101-9.899s-6.186-4.101-9.899-4.101zM15.333 27.583c-2.423 0-4.791-0.718-6.806-2.065s-3.585-3.259-4.512-5.498-1.17-4.701-0.697-7.078c0.473-2.376 1.639-4.559 3.353-6.272s3.896-2.88 6.272-3.353c2.376-0.473 4.839-0.23 7.078 0.697s4.152 2.497 5.498 4.512c1.346 2.014 2.065 4.383 2.065 6.806 0 3.249-1.291 6.365-3.588 8.662s-5.413 3.588-8.662 3.588z"></path>
</symbol>
<symbol id="icon-ic_baseline-done" viewBox="0 0 32 32">
<path d="M11.636 21.711l-5.727-5.433-1.909 1.811 7.636 7.244 16.364-15.522-1.909-1.811-14.455 13.711z"></path>
</symbol>
<symbol id="icon-ic_baseline-electric-bolt" viewBox="0 0 33 32">
<path d="M20.255 2.948l-13.82 12.372c-0.854 0.773-0.374 2.2 0.774 2.306l10.792 1.040-6.47 9.012c-0.293 0.413-0.253 0.987 0.107 1.346 0.4 0.4 1.027 0.413 1.441 0.027l13.82-12.372c0.854-0.773 0.373-2.2-0.774-2.306l-10.792-1.040 6.47-9.012c0.293-0.413 0.253-0.987-0.107-1.346-0.189-0.192-0.445-0.303-0.715-0.308s-0.53 0.096-0.726 0.281z"></path>
</symbol>
<symbol id="icon-ic_baseline-replay" viewBox="0 0 32 32">
<path d="M16 6.667v-5.333l-6.667 6.667 6.667 6.667v-5.333c4.413 0 8 3.587 8 8s-3.587 8-8 8c-4.413 0-8-3.587-8-8h-2.667c0 5.893 4.773 10.667 10.667 10.667s10.667-4.773 10.667-10.667c0-5.893-4.773-10.667-10.667-10.667z"></path>
</symbol>
<symbol id="icon-lucide_bolt" viewBox="0 0 32 32">
<path stroke-linejoin="round" stroke-linecap="round" stroke-miterlimit="4" stroke-width="2.6667" d="M28 21.334v-10.669c-0.001-0.468-0.124-0.927-0.358-1.332s-0.57-0.741-0.975-0.975l-9.333-5.334c-0.405-0.234-0.865-0.357-1.333-0.357s-0.928 0.123-1.333 0.357l-9.333 5.334c-0.405 0.234-0.741 0.57-0.975 0.975s-0.357 0.864-0.358 1.332v10.669c0 0.468 0.124 0.927 0.358 1.332s0.57 0.741 0.975 0.975l9.333 5.334c0.405 0.234 0.865 0.357 1.333 0.357s0.928-0.123 1.333-0.357l9.333-5.334c0.405-0.234 0.741-0.57 0.975-0.975s0.357-0.864 0.358-1.332z"></path>
<path stroke-linejoin="round" stroke-linecap="round" stroke-miterlimit="4" stroke-width="2.6667" d="M16 21.333c2.945 0 5.333-2.388 5.333-5.333s-2.388-5.333-5.333-5.333c-2.946 0-5.333 2.388-5.333 5.333s2.388 5.333 5.333 5.333z"></path>
</symbol>
<symbol id="icon-lucide_smile" viewBox="0 0 33 32">
<path stroke-linejoin="round" stroke-linecap="round" stroke-miterlimit="4" stroke-width="2.6667" d="M16.667 29.333c7.364 0 13.333-5.97 13.333-13.333s-5.97-13.333-13.333-13.333c-7.364 0-13.333 5.97-13.333 13.333s5.97 13.333 13.333 13.333z"></path>
<path stroke-linejoin="round" stroke-linecap="round" stroke-miterlimit="4" stroke-width="2.6667" d="M11.333 18.667c0 0 2 2.667 5.333 2.667s5.333-2.667 5.333-2.667M12.667 12h0.013M20.667 12h0.013"></path>
</symbol>
<symbol id="icon-mdi_heart-outline" viewBox="0 0 32 32">
<path d="M16.133 24.338l-0.133 0.131-0.147-0.131c-6.333-5.637-10.52-9.365-10.52-13.144 0-2.616 2-4.578 4.667-4.578 2.053 0 4.053 1.308 4.76 3.087h2.48c0.707-1.779 2.707-3.087 4.76-3.087 2.667 0 4.667 1.962 4.667 4.578 0 3.78-4.187 7.507-10.533 13.144zM22 4c-2.32 0-4.547 1.059-6 2.72-1.453-1.661-3.68-2.72-6-2.72-4.107 0-7.333 3.152-7.333 7.193 0 4.931 4.533 8.972 11.4 15.080l1.933 1.726 1.933-1.726c6.867-6.108 11.4-10.149 11.4-15.080 0-4.041-3.227-7.193-7.333-7.193z"></path>
</symbol>
<symbol id="icon-streamline-sharp_star-2-solid" viewBox="0 0 32 32">
<path d="M20.487 11.509l-4.487-10.176-4.488 10.176-10.179 4.488 10.179 4.488 4.488 10.181 4.487-10.181 10.179-4.488-10.179-4.488z"></path>
</symbol>
<symbol id="icon-mob-menu" viewBox="0 0 32 32">
<path d="M4.8 8c0-0.884 0.716-1.6 1.6-1.6h19.2c0.884 0 1.6 0.716 1.6 1.6s-0.716 1.6-1.6 1.6h-19.2c-0.884 0-1.6-0.716-1.6-1.6v0zM4.8 16c0-0.884 0.716-1.6 1.6-1.6h19.2c0.884 0 1.6 0.716 1.6 1.6s-0.716 1.6-1.6 1.6h-19.2c-0.884 0-1.6-0.716-1.6-1.6v0zM4.8 24c0-0.884 0.716-1.6 1.6-1.6h19.2c0.884 0 1.6 0.716 1.6 1.6s-0.716 1.6-1.6 1.6h-19.2c-0.884 0-1.6-0.716-1.6-1.6v0z"></path>
</symbol>
<symbol id="icon-left-arrow" viewBox="0 0 51 32">
<path d="M0 15.891l19.091-15.648v12.671h31.818v6.335h-31.818v12.671l-19.091-16.028z"></path>
</symbol>
<symbol id="icon-rigth-arrow" viewBox="0 0 51 32">
<path d="M50.909 15.891l-19.091-15.648v12.671h-31.818v6.335h31.818v12.671l19.091-16.028z"></path>
</symbol>
<symbol id="icon-mobile-close" viewBox="0 0 32 32">
<path d="M9.6 23.659l6.4-6.4 6.4 6.4 1.259-1.259-6.4-6.4 6.4-6.4-1.259-1.259-6.4 6.4-6.4-6.4-1.259 1.259 6.4 6.4-6.4 6.4 1.259 1.259zM16.005 32c-2.212 0-4.292-0.42-6.24-1.259-1.947-0.84-3.641-1.98-5.083-3.42s-2.582-3.132-3.422-5.077c-0.84-1.945-1.26-4.024-1.26-6.238s0.42-4.294 1.26-6.24c0.839-1.947 1.977-3.641 3.415-5.083s3.131-2.582 5.079-3.422c1.948-0.84 4.028-1.26 6.24-1.26s4.292 0.42 6.24 1.26c1.947 0.839 3.641 1.978 5.083 3.417s2.582 3.132 3.422 5.079c0.84 1.947 1.26 4.027 1.26 6.238s-0.42 4.292-1.259 6.24c-0.839 1.948-1.979 3.643-3.42 5.083s-3.134 2.581-5.077 3.422c-1.944 0.841-4.023 1.262-6.238 1.26zM16 30.222c3.97 0 7.333-1.378 10.089-4.133s4.133-6.119 4.133-10.089c0-3.97-1.378-7.333-4.133-10.089s-6.119-4.133-10.089-4.133c-3.97 0-7.333 1.378-10.089 4.133s-4.133 6.119-4.133 10.089c0 3.97 1.378 7.333 4.133 10.089s6.119 4.133 10.089 4.133z"></path>
</symbol>
  </defs>
</svg>
