<svg aria-hidden="true" style="position:absolute;width:0;height:0;overflow:hidden" xmlns="http://www.w3.org/2000/svg">
  <defs>
    <symbol id="icon-google-play" viewBox="0 0 30 32">
<path fill="#ea4335" style="fill: var(--color1, #ea4335)" d="M21.060 22.504l-15.135 8.48c-0.535 0.314-1.165 0.489-1.834 0.489-1.676 0-3.085-1.109-3.494-2.607-0.005-0.005-0.008-0.008-0.008-0.008l13.411-13.825 7.060 7.471z"></path>
<path fill="#fbbc04" style="fill: var(--color2, #fbbc04)" d="M29.449 15.767c0 1.338-0.771 2.508-1.912 3.104l-6.477 3.632-7.367-7.157 7.343-6.347 6.525 3.678c1.125 0.596 1.889 1.759 1.889 3.089z"></path>
<path fill="#4285f4" style="fill: var(--color3, #4285f4)" d="M14.456 15.385l-13.868 13.473c-0.079-0.291-0.118-0.589-0.118-0.902v-24.431c0-0.313 0.039-0.619 0.118-0.91l13.868 12.77z"></path>
<path fill="#34a853" style="fill: var(--color4, #34a853)" d="M0.589 2.615c0.417-1.506 1.826-2.615 3.502-2.615 0.685 0 1.322 0.191 1.873 0.505l15.072 8.495-6.942 6.737-13.506-13.121z"></path>
</symbol>
<symbol id="icon-star" viewBox="0 0 32 32">
<path  d="M16 1.371l3.592 11.056h11.625l-9.405 6.833 3.592 11.056-9.405-6.833-9.405 6.833 3.592-11.056-9.405-6.833h11.625l3.592-11.056z"></path>
</symbol>
<symbol id="icon-triangle" viewBox="0 0 32 32">
<path  d="M16 2.5l15.155 26.25h-30.311l15.155-26.25z"></path>
</symbol>
<symbol id="icon-ellipse" viewBox="0 0 32 32">
<path  d="M32 16c0 8.837-7.163 16-16 16s-16-7.163-16-16c0-8.837 7.163-16 16-16s16 7.163 16 16z"></path>
</symbol>
<symbol id="icon-rectangle" viewBox="0 0 32 32">
<path d="M0 0h32v32h-32v-32z"></path>
</symbol>
<symbol id="icon-green-ball" viewBox="0 0 32 32">
<path d="M16 0c8.837 0 16 7.163 16 16s-7.163 16-16 16c-8.837 0-16-7.163-16-16s7.163-16 16-16z"></path>
</symbol>
<symbol id="icon-v-arrow-down" viewBox="0 0 34 32">
<path d="M18.963 30.728l15.171-24.583-3.792-6.145-13.275 21.511-13.275-21.511-3.792 6.145 15.171 24.583c0.503 0.815 1.185 1.272 1.896 1.272s1.393-0.458 1.896-1.272z"></path>
</symbol>
<symbol id="icon-arrow-left" viewBox="0 0 15 32">
<path d="M2.916 17.564l6.883 7.396 1.72-1.849-6.023-6.471 6.023-6.471-1.72-1.849-6.883 7.396c-0.228 0.245-0.356 0.578-0.356 0.924s0.128 0.679 0.356 0.924z"></path>
</symbol>
  </defs>
</svg>
